<?xml version="1.0" encoding="UTF-8" standalone="no" ?>
<!DOCTYPE svg PUBLIC "-//W3C//DTD SVG 1.1//EN" "http://www.w3.org/Graphics/SVG/1.1/DTD/svg11.dtd">
<svg xmlns="http://www.w3.org/2000/svg" xmlns:xlink="http://www.w3.org/1999/xlink" version="1.1" width="500" height="500" viewBox="0 0 500 500" xml:space="preserve">
<desc>Created with Fabric.js 5.3.0</desc>
<defs>
</defs>
<g transform="matrix(1 0 0 1 184.1957218259 106.1788196215)" id="bs4AiTU_m9g8-jWmqnoXI"  >
<path style="stroke: rgb(0,0,0); stroke-width: 1; stroke-dasharray: none; stroke-linecap: butt; stroke-dashoffset: 0; stroke-linejoin: miter; stroke-miterlimit: 4; fill: rgb(255,255,255); fill-opacity: 0; fill-rule: nonzero; opacity: 1;" vector-effect="non-scaling-stroke"  transform=" translate(0, 0)" d="M 0 0" stroke-linecap="round" />
</g>
<g transform="matrix(1 0 0 1 259.3835598731 252.8370557407)" id="up66gxQ-6UxgnAK9OTBmK"  >
<path style="stroke: rgb(0,0,0); stroke-width: 1; stroke-dasharray: none; stroke-linecap: butt; stroke-dashoffset: 0; stroke-linejoin: miter; stroke-miterlimit: 4; fill: none; fill-rule: nonzero; opacity: 1;" vector-effect="non-scaling-stroke"  transform=" translate(-4.474e-7, -0.0000062404)" d="M -75.67419 -146.20562 C -75.67419 -146.20562 -79.30445 -106.36907000000001 -79.38355999999999 -12.837050000000005 C -80.72849999999998 88.60636 -68.39571 167.16295 -68.39571 167.16295 C -68.39571 167.16295 -58.79812 193.15105 0.6164400000000114 192.8346 C 60.03100000000001 192.51814 69.26252000000001 167.16295 69.26252000000001 167.16295 C 69.26252000000001 167.16295 81.73758000000001 88.10163 79.12683000000001 -12.837050000000005 C 79.04772000000001 -118.52257 76.54101000000001 -146.71836000000002 76.54101000000001 -146.71836000000002 C 76.54101000000001 -146.71836000000002 45.150750000000016 -192.99516000000003 0.6164500000000146 -192.83705000000003 C -43.91784999999999 -192.67894000000004 -75.67417999999998 -146.20562000000004 -75.67417999999998 -146.20562000000004 z" stroke-linecap="round" />
</g>
<g transform="matrix(1 0 0 1 195.8714450347 281.8537331679)" id="c9_FfweE0-y2kLSxyGHxw"  >
<path style="stroke: rgb(0,0,0); stroke-width: 1; stroke-dasharray: none; stroke-linecap: butt; stroke-dashoffset: 0; stroke-linejoin: miter; stroke-miterlimit: 4; fill: rgb(0,0,0); fill-rule: nonzero; opacity: 1;" vector-effect="non-scaling-stroke"  transform=" translate(-0.0000046884, -0.000005)" d="M -11.53918 -99.7501 L -8.184660000000001 -0.8356399999999979 L -1.706150000000001 99.75011 C -1.706150000000001 99.75011 18.93392 59.70964000000001 8.683459999999998 -1.8537299999999988 C -1.567000000000002 -63.41709 -11.53917 -99.7501 -11.53917 -99.7501 z" stroke-linecap="round" />
</g>
<g transform="matrix(-1 0 0 1 324.0532632165 281.4641227783)" id="NdhvdEM1UGLxkUQL3QKC4"  >
<path style="stroke: rgb(0,0,0); stroke-width: 1; stroke-dasharray: none; stroke-linecap: butt; stroke-dashoffset: 0; stroke-linejoin: miter; stroke-miterlimit: 4; fill: rgb(0,0,0); fill-rule: nonzero; opacity: 1;" vector-effect="non-scaling-stroke"  transform=" translate(0, 0)" d="M -11.53918 -99.7501 C -11.53918 -99.7501 -10.64292 -50.71069000000001 -8.184660000000001 -0.8356399999999979 C -5.726400000000001 49.039410000000004 -1.706150000000001 99.75011 -1.706150000000001 99.75011 C -1.706150000000001 99.75011 18.93392 59.70964000000001 8.683459999999998 -1.8537299999999988 C -1.567000000000002 -63.41709 -11.53917 -99.7501 -11.53917 -99.7501 z" stroke-linecap="round" />
</g>
<g transform="matrix(1 0 0 1 229.9723365919 245.3045680473)" id="8ADdxjErgW8Cu0Pwt-4qE"  >
<path style="stroke: rgb(0,0,0); stroke-width: 1; stroke-dasharray: none; stroke-linecap: butt; stroke-dashoffset: 0; stroke-linejoin: miter; stroke-miterlimit: 4; fill: rgb(255,255,255); fill-opacity: 0; fill-rule: nonzero; opacity: 1;" vector-effect="non-scaling-stroke"  transform=" translate(0, 0)" d="M 0 0" stroke-linecap="round" />
</g>
<g transform="matrix(1 0 0 1 178.5456628186 162.2922992863)" id="KWnNjePAruypf0P71k9C4"  >
<path style="stroke: rgb(0,0,0); stroke-width: 1; stroke-dasharray: none; stroke-linecap: butt; stroke-dashoffset: 0; stroke-linejoin: miter; stroke-miterlimit: 4; fill: rgb(255,255,255); fill-opacity: 0; fill-rule: nonzero; opacity: 1;" vector-effect="non-scaling-stroke"  transform=" translate(-3.4e-7, -0.0000062018)" d="M 3.4501 -26.79629 C 3.4501 -26.79629 -0.53714 -26.279539999999997 -2.13204 -22.29229 C -2.63952 -21.023590000000002 -3.01171 -16.52832 -3.22875 -10.834410000000002 C -3.6938299999999997 1.3664099999999983 -3.4465399999999997 19.0708 -2.29153 22.32652 C -0.5974899999999999 27.10164 1.4543400000000002 26.792229999999996 1.4543400000000002 26.792229999999996" stroke-linecap="round" />
</g>
<g transform="matrix(1 0 0 -1 180.8655126498 346.3642056558)" id="dojryq1bafQiys692dFTM"  >
<path style="stroke: rgb(0,0,0); stroke-width: 1; stroke-dasharray: none; stroke-linecap: butt; stroke-dashoffset: 0; stroke-linejoin: miter; stroke-miterlimit: 4; fill: rgb(255,255,255); fill-opacity: 0; fill-rule: nonzero; opacity: 1;" vector-effect="non-scaling-stroke"  transform=" translate(-3.4e-7, 0.0000037982)" d="M 4.31561 -26.66314 C 4.31561 -26.66314 -1.40266 -26.412699999999997 -2.9975499999999995 -22.425459999999998 C -3.5050299999999996 -21.15676 -3.8772199999999994 -16.661489999999997 -4.094259999999999 -10.967579999999998 C -4.55934 1.2332400000000021 -4.312049999999999 18.937630000000002 -3.1570399999999994 22.193350000000002 C -1.4629999999999994 26.968470000000003 0.5888300000000006 26.659060000000004 0.5888300000000006 26.659060000000004" stroke-linecap="round" />
</g>
<g transform="matrix(-1 0 0 -1 338.2417504179 347.1631362018)" id="dOaLWCT8YoMCc6b550PpC"  >
<path style="stroke: rgb(0,0,0); stroke-width: 1; stroke-dasharray: none; stroke-linecap: butt; stroke-dashoffset: 0; stroke-linejoin: miter; stroke-miterlimit: 4; fill: rgb(255,255,255); fill-opacity: 0; fill-rule: nonzero; opacity: 1;" vector-effect="non-scaling-stroke"  transform=" translate(-3.4e-7, 0.0000037982)" d="M 4.31561 -26.66314 C 4.31561 -26.66314 -1.40266 -26.412699999999997 -2.9975499999999995 -22.425459999999998 C -3.5050299999999996 -21.15676 -3.8772199999999994 -16.661489999999997 -4.094259999999999 -10.967579999999998 C -4.55934 1.2332400000000021 -4.312049999999999 18.937630000000002 -3.1570399999999994 22.193350000000002 C -1.4629999999999994 26.968470000000003 0.5888300000000006 26.659060000000004 0.5888300000000006 26.659060000000004" stroke-linecap="round" />
</g>
<g transform="matrix(-1 0 0 1 340.8424826066 161.4308157675)" id="Jb0nwXXAEnoUWJvSQjEt9"  >
<path style="stroke: rgb(0,0,0); stroke-width: 1; stroke-dasharray: none; stroke-linecap: butt; stroke-dashoffset: 0; stroke-linejoin: miter; stroke-miterlimit: 4; fill: rgb(255,255,255); fill-opacity: 0; fill-rule: nonzero; opacity: 1;" vector-effect="non-scaling-stroke"  transform=" translate(-3.4e-7, -0.0000051573)" d="M 3.4501 -26.7612 C 3.4501 -26.7612 -0.53714 -26.24445 -2.13204 -22.257199999999997 C -2.63952 -20.9885 -3.01171 -16.493229999999997 -3.22875 -10.799319999999998 C -3.6938299999999997 1.4015000000000022 -3.4465399999999997 19.105890000000002 -2.29153 22.361610000000002 C -0.5974899999999999 27.136730000000004 2.48224 26.7539 2.48224 26.7539" stroke-linecap="round" />
</g>
<g transform="matrix(1 0 0 1 348.7933132744 209.8017615606)" id="eZ7Hl-obCtzOvoqAmR23b"  >
<path style="stroke: rgb(0,0,0); stroke-width: 1; stroke-dasharray: none; stroke-linecap: butt; stroke-dashoffset: 0; stroke-linejoin: miter; stroke-miterlimit: 4; fill: rgb(255,255,255); fill-opacity: 0; fill-rule: nonzero; opacity: 1;" vector-effect="non-scaling-stroke"  transform=" translate(-0.0000023034, 0.0000058956)" d="M -10.50976 -11.3577 C -10.50976 -11.3577 3.8814899999999994 -9.111839999999999 8.520969999999998 -0.8376099999999997 C 13.160449999999997 7.43662 8.402769999999999 10.86452 7.102529999999998 11.33733 C 5.8022899999999975 11.81014 -10.391560000000002 3.8905199999999995 -10.391560000000002 3.8905199999999995" stroke-linecap="round" />
</g>
<g transform="matrix(-1 0 0 1 169.9044243855 210.2272934755)" id="TaEp0bCWQbBFK2HedzSMw"  >
<path style="stroke: rgb(0,0,0); stroke-width: 1; stroke-dasharray: none; stroke-linecap: butt; stroke-dashoffset: 0; stroke-linejoin: miter; stroke-miterlimit: 4; fill: rgb(255,255,255); fill-opacity: 0; fill-rule: nonzero; opacity: 1;" vector-effect="non-scaling-stroke"  transform=" translate(-0.0000023034, 0.0000058956)" d="M -10.50976 -11.3577 C -10.50976 -11.3577 3.8814899999999994 -9.111839999999999 8.520969999999998 -0.8376099999999997 C 13.160449999999997 7.43662 8.402769999999999 10.86452 7.102529999999998 11.33733 C 5.8022899999999975 11.81014 -10.391560000000002 3.8905199999999995 -10.391560000000002 3.8905199999999995" stroke-linecap="round" />
</g>
<g transform="matrix(-1 0 0 1 318.5698253558 91.2845638024)" id="Wmy9MAAE-URWa8wHK3Ujl"  >
<path style="stroke: rgb(0,0,0); stroke-width: 1; stroke-dasharray: none; stroke-linecap: butt; stroke-dashoffset: 0; stroke-linejoin: miter; stroke-miterlimit: 4; fill: rgb(255,255,255); fill-opacity: 0; fill-rule: nonzero; opacity: 1;" vector-effect="non-scaling-stroke"  transform=" translate(0.0000043676, -0.0000075943)" d="M -14.83659 11.45477 C -14.83659 11.45477 -16.192249999999998 17.75461 -13.241689999999998 17.03691 C -10.291129999999999 16.319209999999998 8.448900000000002 -3.975850000000001 15.147460000000002 -17.093870000000003" stroke-linecap="round" />
</g>
<g transform="matrix(1 0 0 1 201.0738125966 91.970369225)" id="IT6icwkK4t4a6G3eZnhmP"  >
<path style="stroke: rgb(0,0,0); stroke-width: 1; stroke-dasharray: none; stroke-linecap: butt; stroke-dashoffset: 0; stroke-linejoin: miter; stroke-miterlimit: 4; fill: rgb(255,255,255); fill-opacity: 0; fill-rule: nonzero; opacity: 1;" vector-effect="non-scaling-stroke"  transform=" translate(0.0000043676, -0.0000075943)" d="M -14.83659 11.45477 C -14.83659 11.45477 -16.192249999999998 17.75461 -13.241689999999998 17.03691 C -10.291129999999999 16.319209999999998 8.448900000000002 -3.975850000000001 15.147460000000002 -17.093870000000003" stroke-linecap="round" />
</g>
<g transform="matrix(-1 0 0 1 347.940046668 214.059735844)" id="1p7MGiK1rc5ylD6Dv7tgZ"  >
<path style="stroke: rgb(0,0,0); stroke-width: 1; stroke-dasharray: none; stroke-linecap: butt; stroke-dashoffset: 0; stroke-linejoin: miter; stroke-miterlimit: 4; fill: rgb(255,255,255); fill-opacity: 0; fill-rule: nonzero; opacity: 1;" vector-effect="non-scaling-stroke"  transform=" translate(0.000003332, 0)" d="M -9.05978 6.125 C -9.05978 6.125 -9.1943 2.0927 -2.03937 -1.8448000000000002 C 5.11556 -5.7823 9.05995 -6.125 9.05995 -6.125" stroke-linecap="round" />
</g>
<g transform="matrix(1 0 0 1 170.940043758 214.684735844)" id="qNMdiJlId03GFenN5dIKC"  >
<path style="stroke: rgb(0,0,0); stroke-width: 1; stroke-dasharray: none; stroke-linecap: butt; stroke-dashoffset: 0; stroke-linejoin: miter; stroke-miterlimit: 4; fill: rgb(255,255,255); fill-opacity: 0; fill-rule: nonzero; opacity: 1;" vector-effect="non-scaling-stroke"  transform=" translate(0.000003332, 0)" d="M -9.05978 6.125 C -9.05978 6.125 -9.1943 2.0927 -2.03937 -1.8448000000000002 C 5.11556 -5.7823 9.05995 -6.125 9.05995 -6.125" stroke-linecap="round" />
</g>
<g transform="matrix(1 0 0 1 259.9773100212 415.9114691605)" id="hUw0EWOAaXV04S-ebUqYQ"  >
<path style="stroke: rgb(0,0,0); stroke-width: 1; stroke-dasharray: none; stroke-linecap: butt; stroke-dashoffset: 0; stroke-linejoin: miter; stroke-miterlimit: 4; fill: rgb(0,0,0); fill-rule: nonzero; opacity: 1;" vector-effect="non-scaling-stroke"  transform=" translate(-2.581e-7, 0.0000058269)" d="M -49.95597 -5.55063 C -47.31861 -13.462720000000001 -41.97795 -21.572609999999997 -41.97795 -21.572609999999997 C -41.97795 -21.572609999999997 -32.99958 -17.616569999999996 0.022689999999997212 -17.616569999999996 C 33.044959999999996 -17.616569999999996 41.75947 -21.572609999999997 41.75947 -21.572609999999997 C 41.75947 -21.572609999999997 45.69577 -14.551909999999998 49.04713 -6.200269999999998 C 52.39849 2.1513800000000014 52.527550000000005 10.075740000000001 52.527550000000005 10.075740000000001 C 52.527550000000005 10.075740000000001 46.28643 20.405410000000003 0.022690000000004318 21.504310000000004 C -46.241049999999994 22.603210000000004 -52.52739999999999 10.075740000000003 -52.52739999999999 10.075740000000003 C -52.52739999999999 10.075740000000003 -52.593329999999995 2.361450000000003 -49.95596999999999 -5.550629999999996 z" stroke-linecap="round" />
</g>
<g transform="matrix(-1 0 0 1 308.5492766154 367.0230510386)" id="BUf-YqxfBcpZZyzwU-qUe"  >
<path style="stroke: rgb(0,0,0); stroke-width: 1; stroke-dasharray: none; stroke-linecap: butt; stroke-dashoffset: 0; stroke-linejoin: miter; stroke-miterlimit: 4; fill: rgb(255,255,255); fill-opacity: 0; fill-rule: nonzero; opacity: 1;" vector-effect="non-scaling-stroke"  transform=" translate(0.0000054351, 0)" d="M -5.77649 -27.32199 C -5.77649 -27.32199 -8.18296 14.616909999999997 -5.11548 19.622370000000004 C -2.0479999999999996 24.627830000000003 6.67412 27.321990000000003 6.67412 27.321990000000003" stroke-linecap="round" />
</g>
<g transform="matrix(1 0 0 1 211.2334275317 367.1222530277)" id="bDJt95tlqeM0VSodDGdh6"  >
<path style="stroke: rgb(0,0,0); stroke-width: 1; stroke-dasharray: none; stroke-linecap: butt; stroke-dashoffset: 0; stroke-linejoin: miter; stroke-miterlimit: 4; fill: none; fill-rule: nonzero; opacity: 1;" vector-effect="non-scaling-stroke"  transform=" translate(-0.0000019293, 0)" d="M -5.65438 -27.12225 C -5.65438 -27.12225 -8.12743 14.550339999999998 -5.05994 19.555790000000002 C -1.99246 24.56125 6.5965 27.12225 6.5965 27.12225" stroke-linecap="round" />
</g>
<g transform="matrix(-1 0 0 1 319.0524796578 403.4883658937)" id="X-mTY9lzyF0kbkOc0qydW"  >
<path style="stroke: rgb(0,0,0); stroke-width: 1; stroke-dasharray: none; stroke-linecap: butt; stroke-dashoffset: 0; stroke-linejoin: miter; stroke-miterlimit: 4; fill: rgb(255,255,255); fill-opacity: 0; fill-rule: nonzero; opacity: 1;" vector-effect="non-scaling-stroke"  transform=" translate(0, 0.000005)" d="M -6.7614 -22.8676 C -6.7614 -22.8676 -6.7119100000000005 -5.33756 -3.49121 5.67089 C -0.27051000000000025 16.67934 6.7614 22.86759 6.7614 22.86759" stroke-linecap="round" />
</g>
<g transform="matrix(1 0 0 1 201.0414145478 403.735317133)" id="7IboV25qNYIZI6skG-e7R"  >
<path style="stroke: rgb(0,0,0); stroke-width: 1; stroke-dasharray: none; stroke-linecap: butt; stroke-dashoffset: 0; stroke-linejoin: miter; stroke-miterlimit: 4; fill: rgb(255,255,255); fill-opacity: 0; fill-rule: nonzero; opacity: 1;" vector-effect="non-scaling-stroke"  transform=" translate(0, 0)" d="M -6.85198 -22.74682 C -6.85198 -22.74682 -6.62133 -5.45833 -3.40063 5.55012 C -0.17993000000000015 16.55857 6.851980000000001 22.74682 6.851980000000001 22.74682" stroke-linecap="round" />
</g>
<g transform="matrix(1 0 0 1 259.9014831623 194.8317530473)" id="WgXlYuNbhyushOQKOEFZc"  >
<path style="stroke: rgb(0,0,0); stroke-width: 1; stroke-dasharray: none; stroke-linecap: butt; stroke-dashoffset: 0; stroke-linejoin: miter; stroke-miterlimit: 4; fill: rgb(0,0,0); fill-rule: nonzero; opacity: 1;" vector-effect="non-scaling-stroke"  transform=" translate(0.000005, -0.000005)" d="M -71.51457 -26.59574 C -71.51457 -26.59574 -44.78958000000001 -50.472809999999996 -0.048850000000001614 -50.472809999999996 C 44.69188 -50.472809999999996 71.51456 -26.595739999999996 71.51456 -26.595739999999996 L 49.99843 50.47282000000001 C 49.99843 50.47282000000001 24.95813 42.43499000000001 -0.048850000000001614 42.43499000000001 C -25.05584 42.43499000000001 -50.02951 50.47282000000001 -50.02951 50.47282000000001 z" stroke-linecap="round" />
</g>
<g transform="matrix(1 0 0 1 259.9014831623 312.7406455124)" id="sxGySpU1UvFoPA9dARfw6"  >
<path style="stroke: rgb(0,0,0); stroke-width: 1; stroke-dasharray: none; stroke-linecap: butt; stroke-dashoffset: 0; stroke-linejoin: miter; stroke-miterlimit: 4; fill: none; fill-rule: nonzero; opacity: 1;" vector-effect="non-scaling-stroke"  transform=" translate(0, 0)" d="M 0.09852 -75.38935 C -24.82995 -75.35790999999999 -49.85694 -67.05910999999999 -49.85694 -67.05910999999999 C -49.85694 -67.05910999999999 -44.01907 -46.32025999999999 -43.12516 -12.740649999999988 C -42.23124 20.83897000000001 -46.28127 67.25935000000001 -46.28127 67.25935000000001 C -46.28127 67.25935000000001 -22.92012 75.38943 0.09852000000000061 75.38943 C 23.117150000000002 75.38943 45.79327 67.25935000000001 45.79327 67.25935000000001 C 45.79327 67.25935000000001 42.13819 20.870410000000014 43.15411 -12.740649999999988 C 44.170030000000004 -46.35170999999999 49.856950000000005 -67.18487999999999 49.856950000000005 -67.18487999999999 C 49.856950000000005 -67.18487999999999 25.027000000000005 -75.42079999999999 0.09853000000000378 -75.38935 z" stroke-linecap="round" />
</g>
</svg>